<?xml version="1.0" encoding="UTF-8" standalone="no"?>
<svg
   xmlns:dc="http://purl.org/dc/elements/1.1/"
   xmlns:cc="http://creativecommons.org/ns#"
   xmlns:rdf="http://www.w3.org/1999/02/22-rdf-syntax-ns#"
   xmlns:svg="http://www.w3.org/2000/svg"
   xmlns="http://www.w3.org/2000/svg"
   viewBox="0 0 102.04813 102.04747"
   height="102.04747"
   width="102.04813"
   xml:space="preserve"
   id="svg2"
   version="1.1"><metadata
     id="metadata8"><rdf:RDF><cc:Work
         rdf:about=""><dc:format>image/svg+xml</dc:format><dc:type
           rdf:resource="http://purl.org/dc/dcmitype/StillImage" /></cc:Work></rdf:RDF></metadata><defs
     id="defs6"><clipPath
       id="clipPath18"
       clipPathUnits="userSpaceOnUse"><path
         id="path16"
         d="M 0,76.536 H 76.536 V 0 H 0 Z" /></clipPath></defs><g
     transform="matrix(1.3333333,0,0,-1.3333333,0,102.04747)"
     id="g10"><g
       id="g12"><g
         clip-path="url(#clipPath18)"
         id="g14"><g
           transform="translate(38.2549,32.1475)"
           id="g20"><path
             id="path22"
             style="fill:#00bcd4;fill-opacity:1;fill-rule:nonzero;stroke:none"
             d="m 0,0 c -3.375,0 -6.119,2.747 -6.119,6.119 0,3.375 2.744,6.121 6.119,6.121 3.373,0 6.119,-2.746 6.119,-6.121 C 6.119,2.747 3.373,0 0,0 M 9.094,7.679 C 8.35,12.03 4.561,15.356 0,15.356 c -5.092,0 -9.236,-4.143 -9.236,-9.237 0,-5.092 4.144,-9.235 9.236,-9.235 4.561,0 8.35,3.326 9.094,7.678 L 30.102,4.563 C 29.289,-11.33 16.104,-24.009 0.014,-24.009 c -11.307,0 -21.567,6.243 -26.774,16.293 l -2.765,-1.433 c 5.742,-11.087 17.062,-17.976 29.539,-17.976 18.332,0 33.244,14.913 33.244,33.246 V 7.68 Z" /></g><g
           transform="translate(38.2686,15.6494)"
           id="g24"><path
             id="path26"
             style="fill:#00bcd4;fill-opacity:1;fill-rule:nonzero;stroke:none"
             d="m 0,0 c 6.709,0 13.031,2.957 17.346,8.114 l -2.391,2.001 C 11.234,5.668 5.783,3.116 0,3.116 c -10.752,0 -19.502,8.75 -19.502,19.503 0,10.753 8.75,19.501 19.502,19.501 5.783,0 11.234,-2.551 14.955,-6.997 l 2.391,2 C 13.031,42.279 6.709,45.236 0,45.236 c -11.947,0 -21.732,-9.314 -22.539,-21.058 h -7.551 c 0.813,15.891 13.998,28.569 30.09,28.569 10.703,0 20.693,-5.757 26.074,-15.025 l 2.696,1.565 C 22.834,49.512 11.811,55.864 0,55.864 c -18.332,0 -33.246,-14.913 -33.246,-33.245 v -1.557 h 10.707 C -21.732,9.317 -11.947,0 0,0" /></g></g></g></g></svg>